<mxfile host="app.diagrams.net" modified="2022-06-04T07:25:32.304Z" agent="5.0 (Windows NT 10.0; Win64; x64) AppleWebKit/537.36 (KHTML, like Gecko) Chrome/102.0.5005.63 Safari/537.36" etag="F1NV9nO8UaR5LaN0Bw5N" version="18.2.0" type="github">
  <diagram id="XQMkTFUhUl269U4EvOrw" name="Page-1">
    <mxGraphModel dx="739" dy="337" grid="1" gridSize="10" guides="1" tooltips="1" connect="1" arrows="1" fold="1" page="1" pageScale="1" pageWidth="827" pageHeight="1169" math="0" shadow="0">
      <root>
        <mxCell id="0" />
        <mxCell id="1" parent="0" />
        <mxCell id="zdX9-tCPrOwTUPQIvpT9-3" style="edgeStyle=orthogonalEdgeStyle;rounded=0;orthogonalLoop=1;jettySize=auto;html=1;" edge="1" parent="1" source="zdX9-tCPrOwTUPQIvpT9-1" target="zdX9-tCPrOwTUPQIvpT9-2">
          <mxGeometry relative="1" as="geometry" />
        </mxCell>
        <mxCell id="zdX9-tCPrOwTUPQIvpT9-5" value="发送" style="edgeLabel;html=1;align=center;verticalAlign=middle;resizable=0;points=[];" vertex="1" connectable="0" parent="zdX9-tCPrOwTUPQIvpT9-3">
          <mxGeometry x="-0.1812" relative="1" as="geometry">
            <mxPoint as="offset" />
          </mxGeometry>
        </mxCell>
        <mxCell id="zdX9-tCPrOwTUPQIvpT9-21" style="edgeStyle=orthogonalEdgeStyle;rounded=0;orthogonalLoop=1;jettySize=auto;html=1;exitX=0.75;exitY=1;exitDx=0;exitDy=0;entryX=0.75;entryY=0;entryDx=0;entryDy=0;" edge="1" parent="1" source="zdX9-tCPrOwTUPQIvpT9-1" target="zdX9-tCPrOwTUPQIvpT9-14">
          <mxGeometry relative="1" as="geometry" />
        </mxCell>
        <mxCell id="zdX9-tCPrOwTUPQIvpT9-1" value="python自定义样例&lt;br&gt;抽象出前端请求" style="rounded=1;whiteSpace=wrap;html=1;" vertex="1" parent="1">
          <mxGeometry x="150" y="210" width="120" height="60" as="geometry" />
        </mxCell>
        <mxCell id="zdX9-tCPrOwTUPQIvpT9-7" style="edgeStyle=orthogonalEdgeStyle;rounded=0;orthogonalLoop=1;jettySize=auto;html=1;entryX=0;entryY=0.5;entryDx=0;entryDy=0;" edge="1" parent="1" source="zdX9-tCPrOwTUPQIvpT9-2" target="zdX9-tCPrOwTUPQIvpT9-6">
          <mxGeometry relative="1" as="geometry" />
        </mxCell>
        <mxCell id="zdX9-tCPrOwTUPQIvpT9-8" value="生成" style="edgeLabel;html=1;align=center;verticalAlign=middle;resizable=0;points=[];" vertex="1" connectable="0" parent="zdX9-tCPrOwTUPQIvpT9-7">
          <mxGeometry x="-0.1559" relative="1" as="geometry">
            <mxPoint as="offset" />
          </mxGeometry>
        </mxCell>
        <mxCell id="zdX9-tCPrOwTUPQIvpT9-2" value="后端接受请求&lt;br&gt;结果输入文件中" style="rounded=1;whiteSpace=wrap;html=1;" vertex="1" parent="1">
          <mxGeometry x="340" y="210" width="120" height="60" as="geometry" />
        </mxCell>
        <mxCell id="zdX9-tCPrOwTUPQIvpT9-10" style="edgeStyle=orthogonalEdgeStyle;rounded=0;orthogonalLoop=1;jettySize=auto;html=1;entryX=0.5;entryY=1;entryDx=0;entryDy=0;" edge="1" parent="1" source="zdX9-tCPrOwTUPQIvpT9-4" target="zdX9-tCPrOwTUPQIvpT9-6">
          <mxGeometry relative="1" as="geometry" />
        </mxCell>
        <mxCell id="zdX9-tCPrOwTUPQIvpT9-12" value="监听" style="edgeLabel;html=1;align=center;verticalAlign=middle;resizable=0;points=[];" vertex="1" connectable="0" parent="zdX9-tCPrOwTUPQIvpT9-10">
          <mxGeometry x="-0.105" relative="1" as="geometry">
            <mxPoint as="offset" />
          </mxGeometry>
        </mxCell>
        <mxCell id="zdX9-tCPrOwTUPQIvpT9-16" style="edgeStyle=orthogonalEdgeStyle;rounded=0;orthogonalLoop=1;jettySize=auto;html=1;entryX=1;entryY=0.5;entryDx=0;entryDy=0;" edge="1" parent="1" source="zdX9-tCPrOwTUPQIvpT9-4" target="zdX9-tCPrOwTUPQIvpT9-14">
          <mxGeometry relative="1" as="geometry" />
        </mxCell>
        <mxCell id="zdX9-tCPrOwTUPQIvpT9-4" value="监听输入文件&lt;br&gt;根据输入可视化" style="rounded=1;whiteSpace=wrap;html=1;" vertex="1" parent="1">
          <mxGeometry x="530" y="330" width="120" height="60" as="geometry" />
        </mxCell>
        <mxCell id="zdX9-tCPrOwTUPQIvpT9-6" value="操作日志文件" style="rounded=1;whiteSpace=wrap;html=1;" vertex="1" parent="1">
          <mxGeometry x="530" y="210" width="120" height="60" as="geometry" />
        </mxCell>
        <mxCell id="zdX9-tCPrOwTUPQIvpT9-20" style="edgeStyle=orthogonalEdgeStyle;rounded=0;orthogonalLoop=1;jettySize=auto;html=1;exitX=0.25;exitY=0;exitDx=0;exitDy=0;entryX=0.25;entryY=1;entryDx=0;entryDy=0;" edge="1" parent="1" source="zdX9-tCPrOwTUPQIvpT9-14" target="zdX9-tCPrOwTUPQIvpT9-1">
          <mxGeometry relative="1" as="geometry" />
        </mxCell>
        <mxCell id="zdX9-tCPrOwTUPQIvpT9-14" value="可视化结果" style="rounded=1;whiteSpace=wrap;html=1;" vertex="1" parent="1">
          <mxGeometry x="150" y="330" width="120" height="60" as="geometry" />
        </mxCell>
        <mxCell id="zdX9-tCPrOwTUPQIvpT9-23" value="对比" style="text;html=1;align=center;verticalAlign=middle;resizable=0;points=[];autosize=1;strokeColor=none;fillColor=none;" vertex="1" parent="1">
          <mxGeometry x="190" y="290" width="40" height="20" as="geometry" />
        </mxCell>
        <mxCell id="zdX9-tCPrOwTUPQIvpT9-24" value="" style="endArrow=classic;html=1;rounded=0;" edge="1" parent="1">
          <mxGeometry width="50" height="50" relative="1" as="geometry">
            <mxPoint x="240" y="300" as="sourcePoint" />
            <mxPoint x="300" y="300" as="targetPoint" />
          </mxGeometry>
        </mxCell>
        <mxCell id="zdX9-tCPrOwTUPQIvpT9-25" value="算法正确与否" style="text;html=1;align=center;verticalAlign=middle;resizable=0;points=[];autosize=1;strokeColor=none;fillColor=none;" vertex="1" parent="1">
          <mxGeometry x="300" y="290" width="90" height="20" as="geometry" />
        </mxCell>
      </root>
    </mxGraphModel>
  </diagram>
</mxfile>
